<svg width="24" height="24" viewBox="0 0 24 24" fill="none" xmlns="http://www.w3.org/2000/svg">
<g clip-path="url(#clip0_279_449)">
<path d="M1.84033 14.6708C1.84033 14.335 1.85583 14.2842 2.00335 14.1367C2.20272 13.9373 2.39473 13.9282 2.60403 14.1082C2.7502 14.234 2.76052 14.271 2.76052 14.6708C2.76052 15.0706 2.7502 15.1076 2.60403 15.2333C2.39473 15.4134 2.20272 15.4042 2.00335 15.2049C1.85583 15.0574 1.84033 15.0066 1.84033 14.6708Z" fill="#2563EB"/>
<path d="M1.85791 17.0603C1.82585 16.624 1.83036 16.5997 1.96928 16.4608C2.06783 16.3622 2.17273 16.3165 2.29788 16.3178C2.63148 16.321 2.78836 16.5497 2.78836 17.0329C2.78836 17.4076 2.9236 17.8878 3.18186 18.4301C3.59679 19.3014 4.56581 20.0909 5.55472 20.3634C5.78286 20.4262 6.20782 20.4618 6.94314 20.4797C7.53326 20.4941 8.05719 20.5323 8.12556 20.5659C8.38327 20.6925 8.39279 21.2011 8.13999 21.3363C8.08345 21.3666 7.55762 21.3908 6.96076 21.3905C6.08184 21.3902 5.79911 21.3699 5.42476 21.2802C3.43478 20.8031 2.00916 19.1165 1.85791 17.0603Z" fill="#2563EB"/>
<path fill-rule="evenodd" clip-rule="evenodd" d="M22.5754 3.10769C22.5754 2.11625 22.0564 1.53531 21.5205 1.22625C21.4759 1.20616 21.425 1.18221 21.3728 1.15656C20.7412 0.845743 19.8259 0.855617 19.1865 1.18014C18.7125 1.4206 18.2173 2.08719 18.1184 2.61774C18.0901 2.76929 18.0699 2.78802 17.8715 2.84705C17.0946 3.07808 16.4981 3.68278 16.2754 4.46516C16.1737 4.82212 16.1781 5.6357 16.2824 5.7646C16.4358 5.95417 16.4698 5.95713 18.5119 5.95713H20.473L20.7605 5.69933L20.7589 5.20008C20.758 4.92307 20.7307 4.60269 20.6975 4.48041C20.4963 3.73748 19.9012 3.10576 19.1832 2.87288C19.0313 2.82364 19.0172 2.80649 19.042 2.70154C19.0972 2.46716 19.3857 2.10962 19.6146 1.99202C19.8976 1.84664 20.5289 1.80992 20.8576 1.91968C21.2692 2.05713 21.5696 2.46381 21.6619 3.00861C21.6953 3.20551 21.706 5.6245 21.6973 11.0484L21.6968 11.4145H1.67307C0.749057 11.4145 0 12.1635 0 13.0875V16.9356C0 20.3236 2.74654 23.0702 6.13457 23.0702H17.846C21.2341 23.0702 23.9806 20.3236 23.9806 16.9356V13.0875C23.9806 12.2589 23.3782 11.5709 22.5874 11.4378V9.08165C22.5874 8.30077 22.5875 7.58139 22.5876 6.91868V6.88835C22.5879 5.41718 22.5881 4.22629 22.5868 3.26208C22.5793 3.21544 22.5754 3.16407 22.5754 3.10769ZM19.7981 4.66943C19.6605 4.21152 19.2865 3.85363 18.818 3.73144C18.5396 3.65884 18.474 3.65663 18.2005 3.71081C17.6422 3.82141 17.1288 4.3915 17.1288 4.90086V5.03142H18.4935C18.6129 5.03142 18.7223 5.03162 18.8226 5.0318H18.8226C19.5752 5.03316 19.8101 5.03358 19.8536 4.94258C19.8733 4.90128 19.8536 4.84114 19.8249 4.75371C19.8165 4.72803 19.8073 4.70002 19.7981 4.66943ZM22.3075 12.3625H1.67307C1.27266 12.3625 0.948071 12.6871 0.948071 13.0875V16.9356C0.948071 19.8 3.27015 22.1221 6.13457 22.1221H17.846C20.7105 22.1221 23.0325 19.8 23.0325 16.9356V13.0875C23.0325 12.6871 22.7079 12.3625 22.3075 12.3625Z" fill="#2563EB"/>
<path d="M16.2043 7.34561C16.2043 7.13705 16.3179 6.99079 16.5345 6.92025C16.6624 6.87858 16.6722 6.87872 16.7915 6.92419C17.1739 7.06974 17.19 7.62883 16.8156 7.75954C16.5066 7.86741 16.2043 7.66275 16.2043 7.34561Z" fill="#2563EB"/>
<path d="M18.3225 7.75955C17.9675 7.63565 17.9496 7.09574 18.2955 6.94337C18.4762 6.86371 18.6682 6.90808 18.8127 7.06297C19.1258 7.39866 18.7635 7.91351 18.3225 7.75955Z" fill="#2563EB"/>
<path d="M19.8582 7.35446C19.8578 7.20917 19.994 7.00911 20.136 6.94628C20.3819 6.83739 20.6535 6.95576 20.7366 7.20807C20.8505 7.55341 20.5267 7.87626 20.181 7.76201C20.0229 7.70976 19.8585 7.50209 19.8582 7.35446Z" fill="#2563EB"/>
<path d="M16.6447 9.61585C16.179 9.61585 16.035 9.01208 16.4466 8.78541C16.5698 8.71753 16.7152 8.72289 16.8657 8.80082C17.265 9.00757 17.1001 9.61585 16.6447 9.61585Z" fill="#2563EB"/>
<path d="M18.2582 9.56692C17.9593 9.43053 17.9785 8.90311 18.2869 8.77877C18.5998 8.65253 18.9336 8.85923 18.9336 9.17933C18.9336 9.30495 18.8155 9.51706 18.7159 9.57046C18.605 9.62993 18.3927 9.62824 18.2582 9.56692Z" fill="#2563EB"/>
<path d="M19.8582 9.19558C19.8582 9.06819 19.991 8.83563 20.0916 8.78696C20.4568 8.61024 20.8806 8.95527 20.7431 9.3174C20.5993 9.69604 20.0911 9.72513 19.9073 9.36527C19.8803 9.31226 19.8582 9.23592 19.8582 9.19558Z" fill="#2563EB"/>
</g>
<defs>
<clipPath id="clip0_279_449">
<rect width="24" height="22.1402" fill="white" transform="translate(0 0.929932)"/>
</clipPath>
</defs>
</svg>
