<svg width="20" height="24" viewBox="0 0 20 24" fill="none" xmlns="http://www.w3.org/2000/svg">
<path fill-rule="evenodd" clip-rule="evenodd" d="M0.843666 0.0522629C0.777594 0.0781358 0.686197 0.14697 0.640496 0.205197C0.56241 0.304801 0.557413 0.93996 0.556405 10.8795L0.555349 21.448L0.375147 21.536C0.0712092 21.6843 0.0269037 21.8376 0.0268556 22.7415C0.0267595 23.6202 0.0699598 23.8014 0.308929 23.9248C0.439538 23.9923 1.38686 24 9.54134 24C17.6958 24 18.6431 23.9923 18.7737 23.9248C19.0127 23.8014 19.0559 23.6202 19.0558 22.7415C19.0558 21.8376 19.0115 21.6843 18.7075 21.536L18.5273 21.448V10.8898C18.5273 -0.771451 18.5531 0.163627 18.2287 0.0506784C18.0317 -0.017916 1.01873 -0.01638 0.843666 0.0522629ZM9.54134 21.5044L1.54044 21.4799L1.51617 1.00712H9.54134V21.5044ZM17.5663 1.70314C17.5663 2.08596 17.5481 2.39917 17.5259 2.39917C17.5037 2.39917 17.3577 2.33643 17.2015 2.25977C16.512 1.92131 15.5129 1.93206 14.8148 2.28545C14.2975 2.5473 13.7569 3.27319 13.6489 3.85093C13.618 4.01597 13.596 4.03637 13.3794 4.10064C12.5314 4.35222 11.8802 5.01072 11.637 5.86267C11.5261 6.25142 11.5309 7.13736 11.6447 7.27776C11.8121 7.48416 11.8492 7.48738 14.0784 7.48738H16.2192L16.5331 7.20667L16.5313 6.66298C16.5303 6.36134 16.5005 6.01248 16.4643 5.87928C16.2446 5.07029 15.5951 4.38237 14.8113 4.12877C14.6455 4.07515 14.6301 4.05648 14.6571 3.94219C14.7174 3.68696 15.0324 3.29762 15.2822 3.16955C15.5911 3.01124 16.2802 2.97125 16.6391 3.09078C17.0884 3.24045 17.4163 3.68331 17.5171 4.27657C17.5535 4.491 17.5652 7.12512 17.5557 13.0316L17.5422 21.4799L10.5504 21.5045V1.00712H17.5663V1.70314ZM3.84701 1.55568C3.63692 1.6501 2.10757 3.2104 2.06749 3.37121C1.9907 3.67928 2.21636 3.9838 2.52054 3.98251C2.61578 3.98208 2.72289 3.96331 2.75855 3.94075C2.7942 3.91814 3.18814 3.53748 3.63398 3.09481C4.162 2.57058 4.46271 2.2351 4.49654 2.13266C4.57218 1.90374 4.45671 1.65005 4.2347 1.55741C4.0335 1.4734 4.03004 1.4734 3.84701 1.55568ZM6.34579 1.55611C6.12758 1.6548 2.10608 5.70658 2.06682 5.86728C1.99027 6.18067 2.20781 6.47981 2.51136 6.47861C2.61165 6.47818 2.72438 6.45845 2.76191 6.43474C2.79939 6.41107 3.7557 5.46826 4.88707 4.33969C6.30955 2.92071 6.96 2.23952 6.99571 2.13156C7.07097 1.90379 6.95496 1.64986 6.73349 1.55741C6.53213 1.47336 6.52872 1.47336 6.34579 1.55611ZM14.4127 5.06371C14.924 5.19677 15.3323 5.58648 15.4825 6.08515C15.612 6.51518 15.7416 6.47933 14.0583 6.47933H12.5687V6.33715C12.5687 5.78246 13.1291 5.16168 13.7385 5.04125C14.0371 4.98226 14.1088 4.98466 14.4127 5.06371ZM11.92 8.53622C11.6835 8.61302 11.5596 8.77229 11.5596 8.99942C11.5596 9.34474 11.8895 9.5676 12.2268 9.45014C12.6355 9.30782 12.618 8.69899 12.2005 8.5405C12.0703 8.49101 12.0596 8.49086 11.92 8.53622ZM13.8421 8.56138C13.4646 8.72731 13.4842 9.31522 13.8717 9.45014C14.3531 9.61781 14.7486 9.05717 14.4067 8.69165C14.249 8.52298 14.0395 8.47464 13.8421 8.56138ZM15.8515 8.56459C15.6965 8.63299 15.5479 8.85086 15.5482 9.00902C15.5485 9.16982 15.7281 9.39595 15.9006 9.45283C16.278 9.57725 16.6314 9.2257 16.5072 8.84962C16.4164 8.57491 16.1199 8.44603 15.8515 8.56459ZM7.92321 10.0175C7.75142 10.0499 7.57848 10.2618 7.54574 10.4799C7.52923 10.5898 7.5228 11.1226 7.53139 11.6637C7.54507 12.5187 7.55856 12.6644 7.6344 12.776C7.81373 13.0399 8.2032 13.0548 8.41305 12.8057L8.53219 12.6642V11.5429C8.53219 10.9263 8.51155 10.3674 8.4863 10.3011C8.41305 10.1087 8.14781 9.97502 7.92321 10.0175ZM11.8239 10.5672C11.3745 10.814 11.5317 11.4715 12.0401 11.4715C12.5372 11.4715 12.7172 10.8091 12.2813 10.584C12.1171 10.4991 11.9584 10.4933 11.8239 10.5672ZM13.8329 10.56C13.4963 10.6954 13.4753 11.2697 13.8016 11.4182C13.9484 11.485 14.1802 11.4868 14.3013 11.4221C14.41 11.364 14.5389 11.133 14.5389 10.9962C14.5389 10.6476 14.1745 10.4225 13.8329 10.56ZM15.8028 10.5689C15.693 10.6219 15.548 10.8752 15.548 11.0139C15.548 11.0579 15.5722 11.141 15.6017 11.1987C15.8023 11.5906 16.3571 11.5589 16.514 11.1466C16.6641 10.7522 16.2015 10.3765 15.8028 10.5689ZM11.7 12.6679C11.3556 13.0119 11.6892 13.586 12.1644 13.4669C12.5259 13.3762 12.6456 12.933 12.3802 12.6679C12.27 12.5579 12.1967 12.5276 12.0401 12.5276C11.8836 12.5276 11.8102 12.5579 11.7 12.6679ZM13.794 12.5848C13.3799 12.8187 13.5756 13.4876 14.0583 13.4876C14.3061 13.4876 14.5389 13.2528 14.5389 13.0029C14.5389 12.8661 14.41 12.6351 14.3013 12.577C14.1802 12.5123 13.9152 12.5163 13.794 12.5848ZM15.7579 12.6126C15.5 12.8213 15.4945 13.1537 15.7455 13.3647C15.9381 13.5265 16.1663 13.5271 16.3577 13.3663C16.6008 13.1619 16.6013 12.8539 16.3588 12.6282C16.2234 12.5022 15.9046 12.4939 15.7579 12.6126ZM11.92 14.5364C11.6029 14.6394 11.4663 14.951 11.6155 15.2308C11.8469 15.6648 12.5207 15.5027 12.5207 15.0129C12.5207 14.7812 12.4133 14.6138 12.222 14.5472C12.0604 14.491 12.06 14.491 11.92 14.5364ZM13.8421 14.5616C13.4738 14.7235 13.4749 15.2544 13.8439 15.4293C14.318 15.654 14.7622 15.072 14.4067 14.6919C14.249 14.5232 14.0395 14.4748 13.8421 14.5616ZM15.8515 14.5648C15.6965 14.6332 15.5479 14.8511 15.5482 15.0093C15.5485 15.1701 15.7281 15.3962 15.9006 15.4531C16.278 15.5775 16.6314 15.2259 16.5072 14.8499C16.4164 14.5751 16.1199 14.4462 15.8515 14.5648ZM2.27643 22.5858C2.20545 22.6242 2.12001 22.7314 2.08657 22.8239L2.02568 22.992H1.03588V22.512L1.72064 22.5139C2.34803 22.5156 2.39459 22.5216 2.27643 22.5858ZM4.26627 22.6081C4.16435 22.6703 4.09871 22.7547 4.08007 22.848L4.05123 22.992H3.01808L2.98925 22.848C2.97061 22.7547 2.90497 22.6703 2.80304 22.6081L2.64567 22.5123H4.42365L4.26627 22.6081ZM6.23246 22.6336C6.15283 22.7005 6.08093 22.8031 6.07257 22.8616C6.05822 22.9627 6.03254 22.9686 5.55105 22.9815L5.04475 22.995L4.98331 22.8253C4.94947 22.732 4.86393 22.6243 4.79289 22.5858C4.67578 22.5222 4.74258 22.5156 5.52057 22.5139L6.37718 22.512L6.23246 22.6336ZM8.28312 22.5858C8.21208 22.6243 8.12649 22.732 8.09265 22.8253L8.03126 22.995L7.52491 22.9815C7.04347 22.9686 7.01774 22.9627 7.00339 22.8616C6.99509 22.8031 6.92313 22.7005 6.8435 22.6336L6.69883 22.512L7.55544 22.5139C8.33342 22.5156 8.40019 22.5222 8.28312 22.5858ZM10.273 22.6081C10.171 22.6703 10.1054 22.7547 10.0867 22.848L10.0579 22.992H9.02477L8.99592 22.848C8.97729 22.7547 8.91163 22.6703 8.80973 22.6081L8.65233 22.5123H10.4303L10.273 22.6081ZM12.2391 22.6336C12.1595 22.7005 12.0876 22.8031 12.0793 22.8616C12.0649 22.9627 12.0392 22.9686 11.5577 22.9815L11.0514 22.995L10.99 22.8253C10.9562 22.732 10.8706 22.6243 10.7996 22.5858C10.6824 22.5222 10.7493 22.5156 11.5272 22.5139L12.3839 22.512L12.2391 22.6336ZM14.2898 22.5858C14.2188 22.6243 14.1332 22.732 14.0993 22.8253L14.0379 22.995L13.5316 22.9815C13.0501 22.9686 13.0244 22.9627 13.0101 22.8616C13.0018 22.8031 12.9298 22.7005 12.8502 22.6336L12.7055 22.512L13.5621 22.5139C14.3401 22.5156 14.4069 22.5222 14.2898 22.5858ZM16.2796 22.6081C16.1777 22.6703 16.1121 22.7547 16.0934 22.848L16.0646 22.992H15.0314L15.0026 22.848C14.984 22.7547 14.9183 22.6703 14.8164 22.6081L14.659 22.5123H16.437L16.2796 22.6081ZM18.0468 22.992H17.057L16.9961 22.8239C16.9627 22.7314 16.8772 22.6242 16.8062 22.5858C16.6881 22.5216 16.7346 22.5156 17.362 22.5139L18.0468 22.512V22.992Z" fill="#2563EB"/>
</svg>
