<svg width="19" height="24" viewBox="0 0 19 24" fill="none" xmlns="http://www.w3.org/2000/svg">
<g clip-path="url(#clip0_279_506)">
<path fill-rule="evenodd" clip-rule="evenodd" d="M0.85898 0.0522629C0.793343 0.0781358 0.702556 0.14697 0.657164 0.205197C0.579598 0.304801 0.574629 0.93996 0.573628 10.8795L0.572579 21.448L0.393578 21.536C0.0916656 21.6843 0.0476553 21.8376 0.0476076 22.7415C0.0475121 23.6202 0.0904244 23.8014 0.327802 23.9248C0.457541 23.9923 1.39855 24 9.49869 24C17.5989 24 18.5399 23.9923 18.6696 23.9248C18.907 23.8014 18.9499 23.6202 18.9498 22.7415C18.9498 21.8376 18.9058 21.6843 18.6039 21.536L18.4248 21.448V10.8898C18.4248 -0.771451 18.4504 0.163627 18.1281 0.0506784C17.9325 -0.017916 1.03287 -0.01638 0.85898 0.0522629ZM9.49869 21.5044L1.55111 21.4799L1.527 1.00712H9.49869V21.5044ZM17.4702 1.70314C17.4702 4.75363 17.4658 9.1897 17.4597 13.0316L17.4463 21.4799L10.5011 21.5045V1.00712H17.4702V1.70314ZM3.84231 1.55568C3.63362 1.6501 2.11446 3.2104 2.07465 3.37121C1.99837 3.67928 2.22253 3.9838 2.52468 3.98251C2.61929 3.98208 2.72569 3.96331 2.7611 3.94075C2.79652 3.91814 3.18784 3.53748 3.63071 3.09481C4.1552 2.57058 4.45391 2.2351 4.48752 2.13266C4.56265 1.90374 4.44795 1.65005 4.22742 1.55741C4.02756 1.4734 4.02412 1.4734 3.84231 1.55568ZM6.32443 1.55611C6.10767 1.6548 2.11298 5.70658 2.07398 5.86728C1.99794 6.18067 2.21403 6.47981 2.51556 6.47861C2.61518 6.47818 2.72716 6.45845 2.76445 6.43474C2.80167 6.41107 3.75162 5.46826 4.87547 4.33969C6.28843 2.92071 6.93459 2.23952 6.97002 2.13156C7.04478 1.90379 6.92953 1.64986 6.70954 1.55741C6.50957 1.47336 6.50618 1.47336 6.32443 1.55611ZM7.89139 10.0175C7.72074 10.0499 7.54895 10.2618 7.51638 10.4799C7.50003 10.5898 7.49364 11.1226 7.50218 11.6637C7.51572 12.5187 7.52911 12.6644 7.60445 12.776C7.78258 13.0399 8.16946 13.0548 8.37792 12.8057L8.49631 12.6642V11.5429C8.49631 10.9263 8.47576 10.3674 8.45073 10.3011C8.37792 10.1087 8.11444 9.97502 7.89139 10.0175ZM2.28219 22.5858C2.21169 22.6242 2.12682 22.7314 2.0936 22.8239L2.03312 22.992H1.04991V22.512L1.73011 22.5139C2.35332 22.5156 2.39957 22.5216 2.28219 22.5858ZM4.25878 22.6081C4.15754 22.6703 4.09234 22.7547 4.07382 22.848L4.04518 22.992H3.01891L2.99027 22.848C2.97175 22.7547 2.90655 22.6703 2.8053 22.6081L2.64898 22.5123H4.41511L4.25878 22.6081ZM6.2119 22.6336C6.1328 22.7005 6.06133 22.8031 6.05308 22.8616C6.03882 22.9627 6.01326 22.9686 5.53503 22.9815L5.03205 22.995L4.97107 22.8253C4.93745 22.732 4.85244 22.6243 4.78187 22.5858C4.66557 22.5222 4.73191 22.5156 5.50471 22.5139L6.35561 22.512L6.2119 22.6336ZM8.24885 22.5858C8.17833 22.6243 8.09332 22.732 8.0597 22.8253L7.99867 22.995L7.49574 22.9815C7.01746 22.9686 6.99195 22.9627 6.97769 22.8616C6.9694 22.8031 6.89797 22.7005 6.81887 22.6336L6.67511 22.512L7.52602 22.5139C8.29882 22.5156 8.36519 22.5222 8.24885 22.5858ZM10.2254 22.6081C10.1242 22.6703 10.059 22.7547 10.0405 22.848L10.0118 22.992H8.98556L8.95695 22.848C8.9384 22.7547 8.87322 22.6703 8.77195 22.6081L8.61565 22.5123H10.3818L10.2254 22.6081ZM12.1786 22.6336C12.0995 22.7005 12.028 22.8031 12.0197 22.8616C12.0055 22.9627 11.9799 22.9686 11.5017 22.9815L10.9987 22.995L10.9377 22.8253C10.9041 22.732 10.8191 22.6243 10.7485 22.5858C10.6322 22.5222 10.6986 22.5156 11.4714 22.5139L12.3223 22.512L12.1786 22.6336ZM14.2155 22.5858C14.145 22.6243 14.06 22.732 14.0264 22.8253L13.9653 22.995L13.4624 22.9815C12.9842 22.9686 12.9586 22.9627 12.9444 22.8616C12.9361 22.8031 12.8646 22.7005 12.7855 22.6336L12.6418 22.512L13.4927 22.5139C14.2655 22.5156 14.3318 22.5222 14.2155 22.5858ZM16.1921 22.6081C16.0909 22.6703 16.0256 22.7547 16.0071 22.848L15.9785 22.992H14.9522L14.9236 22.848C14.9051 22.7547 14.8399 22.6703 14.7386 22.6081L14.5823 22.5123H16.3484L16.1921 22.6081ZM17.9475 22.992H16.9643L16.9038 22.8239C16.8706 22.7314 16.7857 22.6242 16.7152 22.5858C16.5979 22.5216 16.6441 22.5156 17.2673 22.5139L17.9475 22.512V22.992Z" fill="#2563EB"/>
<path d="M11.5395 10.4798C11.572 10.2617 11.7438 10.0499 11.9145 10.0174C12.1376 9.97498 12.4011 10.1086 12.4739 10.301C12.4989 10.3674 12.5194 10.9262 12.5194 11.5429V12.6642L12.4011 12.8056C12.1926 13.0547 11.8057 13.0398 11.6276 12.7759C11.5523 12.6643 11.5389 12.5187 11.5253 11.6636C11.5167 11.1225 11.5231 10.5898 11.5395 10.4798Z" fill="#2563EB"/>
</g>
<defs>
<clipPath id="clip0_279_506">
<rect width="18.9767" height="24" fill="white"/>
</clipPath>
</defs>
</svg>
