<svg width="16" height="19" viewBox="0 0 16 19" fill="none" xmlns="http://www.w3.org/2000/svg">
<g clip-path="url(#clip0_64_10210)">
<path d="M8.98195 4.56595C8.88296 4.39352 8.74022 4.25025 8.56815 4.15062C8.39608 4.051 8.20078 3.99854 8.00195 3.99854C7.80312 3.99854 7.60781 4.051 7.43574 4.15062C7.26367 4.25025 7.12094 4.39352 7.02195 4.56595L0.164946 16.233C-0.292054 17.011 0.255946 18 1.14495 18H14.8579C15.7469 18 16.2959 17.01 15.8379 16.233L8.98195 4.56595ZM7.99995 7.99995C8.53495 7.99995 8.95395 8.46195 8.89995 8.99495L8.54995 12.502C8.53819 12.6397 8.47515 12.7681 8.3733 12.8616C8.27145 12.9551 8.13822 13.007 7.99995 13.007C7.86167 13.007 7.72844 12.9551 7.62659 12.8616C7.52474 12.7681 7.46171 12.6397 7.44995 12.502L7.09995 8.99495C7.08738 8.86919 7.10129 8.74218 7.14079 8.62212C7.18029 8.50206 7.2445 8.3916 7.32929 8.29786C7.41408 8.20413 7.51756 8.12919 7.63307 8.07788C7.74858 8.02657 7.87355 8.00002 7.99995 7.99995ZM8.00195 14C8.26716 14 8.52152 14.1053 8.70905 14.2928C8.89659 14.4804 9.00195 14.7347 9.00195 15C9.00195 15.2652 8.89659 15.5195 8.70905 15.7071C8.52152 15.8946 8.26716 16 8.00195 16C7.73673 16 7.48238 15.8946 7.29484 15.7071C7.1073 15.5195 7.00195 15.2652 7.00195 15C7.00195 14.7347 7.1073 14.4804 7.29484 14.2928C7.48238 14.1053 7.73673 14 8.00195 14Z" fill="#F87171"/>
</g>
<defs>
<clipPath id="clip0_64_10210">
<rect width="16" height="16" fill="white" transform="translate(0 3)"/>
</clipPath>
</defs>
</svg>
