<svg width="16" height="19" viewBox="0 0 16 19" fill="none" xmlns="http://www.w3.org/2000/svg">
<g clip-path="url(#clip0_42_399)">
<path d="M16 11C16 13.1217 15.1571 15.1566 13.6569 16.6569C12.1566 18.1571 10.1217 19 8 19C5.87827 19 3.84344 18.1571 2.34315 16.6569C0.842855 15.1566 0 13.1217 0 11C0 8.87827 0.842855 6.84344 2.34315 5.34315C3.84344 3.84285 5.87827 3 8 3C10.1217 3 12.1566 3.84285 13.6569 5.34315C15.1571 6.84344 16 8.87827 16 11ZM12.03 7.97C11.9586 7.89882 11.8735 7.84277 11.7799 7.80522C11.6863 7.76766 11.5861 7.74936 11.4853 7.75141C11.3845 7.75347 11.2851 7.77583 11.1932 7.81717C11.1012 7.85851 11.0185 7.91797 10.95 7.992L7.477 12.417L5.384 10.323C5.24183 10.1905 5.05378 10.1184 4.85948 10.1218C4.66518 10.1253 4.47979 10.204 4.34238 10.3414C4.20497 10.4788 4.12625 10.6642 4.12283 10.8585C4.1194 11.0528 4.19152 11.2408 4.324 11.383L6.97 14.03C7.04128 14.1012 7.12616 14.1572 7.21958 14.1949C7.313 14.2325 7.41305 14.2509 7.51375 14.2491C7.61444 14.2472 7.71374 14.2251 7.8057 14.184C7.89766 14.1429 7.9804 14.0837 8.049 14.01L12.041 9.02C12.1771 8.8785 12.2523 8.68928 12.2504 8.49296C12.2485 8.29664 12.1698 8.10888 12.031 7.97H12.03Z" fill="#2DD4BF"/>
</g>
<defs>
<clipPath id="clip0_42_399">
<rect width="16" height="16" fill="white" transform="translate(0 3)"/>
</clipPath>
</defs>
</svg>
