<svg width="22" height="24" viewBox="0 0 22 24" fill="none" xmlns="http://www.w3.org/2000/svg">
<g clip-path="url(#clip0_279_509)">
<path d="M0.0150793 23.9953C-0.0179977 19.8141 0.0150788 15.6234 0.00562819 11.4422C0.0906837 11.4188 5.15623 11.4094 5.29795 11.4375C5.29795 11.7984 5.29795 12.1641 5.29795 12.5344C5.47752 12.5344 5.69018 12.5906 5.84608 12.5016C6.24774 12.1828 6.64466 11.8594 7.04632 11.5406C7.87326 10.8797 8.71437 10.2328 9.53182 9.55781C9.58384 9.51562 9.6405 9.4969 9.70669 9.4969C10.6706 9.50155 11.6346 9.4969 12.6033 9.4969C12.5891 9.27187 12.6978 8.62032 12.5371 8.5031C11.7244 8.02032 11.0581 7.28438 10.6801 6.41717C9.45624 3.525 11.2424 0.721877 14.2005 0.00468779C14.2335 0.956251 14.2051 1.90781 14.2099 2.85937C14.2005 3.17812 14.5926 3.22031 14.7864 3.39844C14.8478 3.44063 14.9045 3.43125 14.9612 3.39375C15.1313 3.23906 15.4668 3.17812 15.5377 2.95781C15.5377 1.96875 15.5377 0.989064 15.5377 0C16.9364 0.4125 18.2878 1.17188 18.9447 2.52656C20.0645 4.60313 19.2234 7.37342 17.1632 8.53594C17.1632 9.6047 17.1632 10.6641 17.1632 11.7375C18.3115 11.8641 19.5967 11.4797 20.6505 12.0563C21.898 12.7688 21.9783 14.6719 20.7922 15.4781C21.3026 16.5375 21.09 17.4375 20.1921 18.2063C20.6835 19.0922 20.452 20.2781 19.6109 20.8688C19.5448 20.9156 19.5448 20.9344 19.5825 21.0047C20.211 22.3312 19.4266 23.6016 18.0846 24C14.6919 24 11.2991 24 7.90635 24C7.03689 23.5641 6.1816 23.0625 5.29795 22.6734C5.28377 23.1188 5.33105 23.5641 5.27434 24C3.52126 23.9953 1.76817 23.9953 0.0150793 23.9953ZM15.4668 14.461C16.7899 14.461 18.113 14.461 19.4408 14.461C19.6156 14.4703 19.7905 14.4375 19.9417 14.339C20.5276 13.9547 20.1307 13.0547 19.4691 13.1578C17.1821 13.1578 14.8998 13.1578 12.6127 13.1578C12.5749 12.4078 12.6269 11.6625 12.5891 10.9125C11.7905 10.8984 10.9967 10.9125 10.2028 10.9031C9.63581 11.1563 9.19161 11.6953 8.67184 12.0469C7.90636 12.6656 7.13613 13.2844 6.36116 13.8937C6.03982 14.025 5.64765 13.8937 5.30744 13.9547C5.30744 16.3266 5.30744 18.689 5.30744 21.0469C6.20521 21.539 7.13613 21.9797 8.03865 22.4672C11.2377 22.7437 14.5454 22.4812 17.7728 22.5656C18.1933 22.5234 18.5099 22.125 18.3398 21.6844C18.2358 21.3797 17.924 21.2531 17.6216 21.2625C16.478 21.2531 15.3345 21.2766 14.191 21.2484C14.1815 20.7844 14.1626 20.3156 14.2005 19.8516C15.6889 19.7859 17.2341 19.9781 18.6942 19.7766C19.1337 19.575 19.1478 18.8437 18.6753 18.6328C17.4278 18.4359 16.1142 18.6328 14.8478 18.5531C14.8242 18.1172 14.8431 17.6859 14.8383 17.25C14.8383 17.161 14.8525 17.1469 14.9423 17.1422C16.2512 17.1422 17.5554 17.1422 18.8643 17.1422C19.3274 17.2219 19.7527 16.7906 19.6203 16.3219C19.5258 16.0359 19.1904 15.811 18.869 15.8625C17.7397 15.8625 16.6056 15.8625 15.4763 15.8625C15.4432 15.7688 15.4385 14.5828 15.4668 14.461ZM15.7314 11.7422C15.7976 10.3875 15.6086 8.92032 15.7976 7.62187C18.0941 6.8531 18.8265 3.86719 16.9553 2.26406C16.9411 2.75625 16.9506 3.23437 16.9506 3.72188C16.9506 3.78281 16.9411 3.82969 16.8844 3.8625C16.2087 4.27032 15.5424 4.69219 14.8667 5.0953C14.2005 4.69688 13.5578 4.28906 12.8915 3.89063C12.6789 3.7875 12.8443 2.5875 12.7923 2.27344C10.8738 3.80156 11.6629 6.91406 13.9547 7.62187C14.1579 8.90626 13.9594 10.3875 14.0256 11.7375C14.6021 11.7422 15.1597 11.7422 15.7314 11.7422ZM1.42795 22.5656C2.24542 22.5656 3.05345 22.5656 3.87092 22.5656C3.87092 19.3172 3.87092 16.0781 3.87092 12.8344C3.05345 12.8344 2.24542 12.8344 1.42795 12.8344C1.42795 16.0781 1.42795 19.3219 1.42795 22.5656Z" fill="#2563EB"/>
</g>
<defs>
<clipPath id="clip0_279_509">
<rect width="21.6774" height="24" fill="white"/>
</clipPath>
</defs>
</svg>
