<svg width="24" height="24" viewBox="0 0 24 24" fill="none" xmlns="http://www.w3.org/2000/svg">
<g clip-path="url(#clip0_279_511)">
<path d="M13.2846 0.0125057C13.5155 0.131303 13.7526 0.275108 13.7963 0.568973C13.9273 1.10043 13.9648 1.65691 14.0834 2.18837C14.1021 2.21963 14.1645 2.2634 14.2144 2.25715C14.5638 2.28216 14.8946 2.44472 15.2066 2.58228C16.4296 3.06997 17.6526 3.56392 18.8632 4.07662C19.9053 4.47053 21.1158 4.83941 21.5589 5.97739C22.3201 9.42874 22.8194 12.9489 23.4496 16.4253C23.6368 17.6007 23.9862 18.7762 23.9925 19.9704C23.824 21.5773 22.4325 22.3401 20.9474 22.4277C18.3515 22.9029 15.7494 23.3405 13.1474 23.8157C12.2363 23.972 11.2754 24.2034 10.4454 23.6532C9.24733 23.0341 9.2536 21.8087 8.97279 20.6957C7.80589 20.4957 6.64527 20.2643 5.47214 20.0767C4.1243 19.7391 2.64542 19.7641 1.37246 19.2014C0.136937 18.5761 -0.168823 17.1068 0.180617 15.8563C0.6299 13.3428 1.0667 10.8293 1.52222 8.31581C1.74686 6.41506 2.12126 5.32085 4.09934 4.74564C5.85902 4.0141 7.6936 3.25754 9.44076 2.61979C9.49696 2.11959 9.59679 1.6444 9.67789 1.15045C9.74654 0.650256 9.80273 0.262605 10.2832 0.0125057C10.408 0.0125057 10.5328 0.0125057 10.6576 0.0125057C11.3502 0.32513 11.1568 0.850334 11.0694 1.46308C10.9446 1.91326 10.9322 2.38845 10.8073 2.83237C10.8073 2.87614 10.8011 2.93242 10.8198 2.95117C11.0008 3.06372 11.2192 3.145 11.3627 3.32007C11.4937 3.45762 11.5936 3.35133 11.681 3.25754C11.993 2.98243 12.2862 2.67606 12.6606 2.48849C12.6793 2.47598 12.6981 2.43847 12.6918 2.41971C12.592 1.90076 12.4922 1.37555 12.4235 0.850334C12.3112 0.468935 12.6045 0.131302 12.9414 0C13.0662 0.012505 13.1723 0.0125057 13.2846 0.0125057ZM9.14127 4.23918C7.83085 4.70187 6.54544 5.30213 5.24124 5.79605C4.17422 6.28373 3.10718 6.32126 3.03854 7.7531C2.70158 9.79766 2.32094 11.8359 1.95902 13.8743C1.85918 14.5495 1.69694 15.2123 1.61582 15.8876C1.3163 16.8317 1.32878 18.0072 2.5643 18.126C4.0931 18.4136 5.61566 18.6762 7.14448 18.9513C8.81054 19.2202 10.4579 19.5578 12.124 19.8141C13.1536 20.0017 13.5218 18.9263 13.5717 18.0885C13.7152 17.4319 13.7901 16.7629 13.9336 16.1064C14.2768 13.9806 14.6824 11.8672 15.0568 9.7476C15.4125 8.54717 14.4765 8.07197 13.7214 7.35293C12.6606 6.39005 11.6123 5.4084 10.539 4.46427C10.4142 5.10826 10.3581 6.17122 9.41581 5.83358C8.73566 5.53968 9.09135 4.78315 9.14127 4.23918ZM10.4766 20.9771C10.6326 22.7528 11.5125 22.7591 13.0101 22.4214C14.3766 22.1588 15.7557 21.9337 17.1222 21.6836C18.1768 21.5273 19.2064 21.296 20.261 21.1209C21.0784 20.9333 22.3201 21.0396 22.5573 20.0079C22.6883 19.589 22.4699 19.1764 22.4512 18.7574C22.3077 18.0885 22.2265 17.4069 22.0893 16.7379C21.7211 14.6121 21.3467 12.4862 20.9661 10.3604C20.7415 9.10987 20.548 7.84685 20.2984 6.60264C19.9864 5.78357 18.988 5.73355 18.3141 5.35838C17.2221 4.95197 16.1613 4.43927 15.063 4.0391C14.0584 3.54516 13.4219 3.40135 12.6045 4.32672C12.5733 4.37674 12.5795 4.43301 12.6419 4.46427C13.035 4.7894 13.3783 5.16456 13.7714 5.49595C14.6137 6.40253 15.843 7.0403 16.361 8.19701C16.8227 9.53506 16.1488 10.9481 16.0302 12.2987C15.6995 14.1556 15.3563 16.0126 15.0505 17.8759C14.8634 19.2764 14.5264 20.7457 12.9664 21.1522C12.1365 21.3898 11.2941 21.0646 10.4766 20.9771Z" fill="#2563EB"/>
<path d="M7.27552 15.4562C7.41281 14.5183 7.61875 13.5929 7.76227 12.6551C7.91825 12.0798 7.82464 12.1424 7.38785 11.8235C6.86368 11.4233 6.43312 10.8981 6.42067 10.2104C6.43312 9.27251 7.04467 8.35964 7.96194 8.0908C8.46737 7.95323 8.62335 8.18454 8.66081 7.54681C8.64831 7.07161 9.30354 6.79024 9.54689 7.25296C9.7216 7.53428 9.50943 7.8219 9.53439 8.12204C10.0648 8.30963 10.7013 8.67851 10.8823 9.23497C10.9135 9.5476 10.5765 9.81644 10.2832 9.72265C9.94 9.55384 9.74656 9.17872 9.35968 9.04739C9.19121 9.89776 9.06642 10.7356 8.89794 11.5859C8.82306 11.7672 9.1101 11.8047 9.20994 11.8985C11.6186 13.0615 10.539 16.4753 8.03058 16.5316C7.95571 16.863 8.00562 17.2819 7.70608 17.507C7.48146 17.6446 7.17568 17.557 7.05712 17.3257C6.83873 17.0756 7.28802 16.3941 6.98847 16.3441C6.45185 16.2127 5.16639 15.6438 5.34115 14.9685C5.37856 14.7809 5.62819 14.6434 5.81535 14.6559C6.33329 14.856 6.6827 15.3687 7.27552 15.4562ZM8.71695 12.7114C8.56721 13.6367 8.28639 14.6434 8.26143 15.5375C9.70915 15.3624 10.2084 13.2491 8.71695 12.7114ZM8.03058 11.1483C8.15537 10.423 8.25521 9.69764 8.42368 8.9786C7.77473 8.9786 7.26306 9.72265 7.38162 10.3417C7.43154 10.7168 7.7685 10.9044 8.03058 11.1483Z" fill="#2563EB"/>
</g>
<defs>
<clipPath id="clip0_279_511">
<rect width="24" height="24" fill="white"/>
</clipPath>
</defs>
</svg>
