<svg width="17" height="24" viewBox="0 0 17 24" fill="none" xmlns="http://www.w3.org/2000/svg">
<g clip-path="url(#clip0_279_498)">
<path d="M8.57102 0.00878763C13.6348 0.308619 17.3531 5.18088 16.0028 10.0485C15.4274 12.33 13.7442 14.307 11.576 15.2908C11.3621 15.3845 11.1433 15.4735 10.9247 15.5626C10.763 15.6281 10.763 15.6235 10.763 15.7968C10.763 16.4948 10.763 17.1976 10.763 17.8956C10.6726 17.9237 5.68486 17.9331 5.54222 17.905C5.54222 15.5719 5.54222 13.2435 5.54222 10.8964C6.93537 10.8027 8.49493 11.2056 9.73593 10.4185C11.4144 9.39259 11.4667 6.77376 9.81202 5.70091C7.50121 4.20174 4.89556 6.12725 5.24744 8.73202C3.50241 8.73202 1.76691 8.73202 0.0266549 8.73202C-0.367993 3.9066 3.67358 -0.216086 8.57102 0.00878763ZM9.33178 14.5553C14.4194 13.5528 16.6256 7.54675 13.1737 3.67236C9.36505 -0.633039 2.07121 1.64381 1.49589 7.31717C2.28993 7.31717 3.07448 7.31717 3.86853 7.31717C4.54846 3.53181 9.60279 2.46366 11.752 5.68685C13.0643 7.56082 12.4842 10.3436 10.5395 11.571C9.50296 12.3159 8.20014 12.3112 6.97341 12.2972C6.94487 12.4378 6.95437 16.4245 6.97814 16.5042C7.1826 16.5277 9.24146 16.5182 9.33178 16.4902C9.33178 15.8483 9.33178 15.2018 9.33178 14.5553Z" fill="#2563EB"/>
<path d="M5.53724 24.0001C5.52775 22.4447 5.53724 20.894 5.53247 19.3386C5.62284 19.3152 10.5868 19.3058 10.7628 19.3292C10.7628 20.8846 10.7628 22.44 10.7628 23.9954C9.01774 24.0001 7.27749 24.0001 5.53724 24.0001ZM9.32207 22.5946C9.34585 22.4494 9.34107 20.8143 9.31257 20.7347C8.53277 20.7347 7.74824 20.7347 6.96366 20.7347C6.96366 21.3578 6.96366 21.9715 6.96366 22.5946C7.75296 22.5946 8.53277 22.5946 9.32207 22.5946Z" fill="#2563EB"/>
</g>
<defs>
<clipPath id="clip0_279_498">
<rect width="16.32" height="24" fill="white"/>
</clipPath>
</defs>
</svg>
