<svg width="21" height="24" viewBox="0 0 21 24" fill="none" xmlns="http://www.w3.org/2000/svg">
<g clip-path="url(#clip0_279_487)">
<path d="M0.020752 0.320712C0.020752 0.143587 0.164388 0 0.341545 0H20.275C20.4521 0 20.5957 0.143587 20.5957 0.320712V0.611256C20.5957 0.788381 20.4521 0.931968 20.275 0.931968H0.341545C0.164388 0.931968 0.020752 0.788381 0.020752 0.611256V0.320712Z" fill="#2563EB"/>
<path d="M6.32982 4.43652C5.97544 4.43652 5.68823 4.7237 5.68823 5.07797V6.41424C5.68823 6.76848 5.97544 7.05566 6.32982 7.05566C6.68415 7.05566 6.9714 6.76848 6.9714 6.41424V5.07797C6.9714 4.7237 6.68415 4.43652 6.32982 4.43652Z" fill="#2563EB"/>
<path d="M8.62891 5.71943C8.62891 5.36514 8.91616 5.078 9.27049 5.078C9.62482 5.078 9.91207 5.36514 9.91207 5.71943V7.0557C9.91207 7.40999 9.62482 7.69712 9.27049 7.69712C8.91616 7.69712 8.62891 7.40999 8.62891 7.0557V5.71943Z" fill="#2563EB"/>
<path d="M12.2109 4.11584C11.8566 4.11584 11.5693 4.40302 11.5693 4.75727V6.09358C11.5693 6.44782 11.8566 6.73501 12.2109 6.73501C12.5652 6.73501 12.8525 6.44782 12.8525 6.09358V4.75727C12.8525 4.40302 12.5652 4.11584 12.2109 4.11584Z" fill="#2563EB"/>
<path d="M14.51 5.66596C14.51 5.31172 14.7973 5.02454 15.1516 5.02454C15.506 5.02454 15.7932 5.31172 15.7932 5.66596V7.00228C15.7932 7.35652 15.506 7.6437 15.1516 7.6437C14.7973 7.6437 14.51 7.35652 14.51 7.00228V5.66596Z" fill="#2563EB"/>
<path d="M18.0923 4.43652C17.7379 4.43652 17.4507 4.7237 17.4507 5.07797V6.41424C17.4507 6.76848 17.7379 7.05566 18.0923 7.05566C18.4466 7.05566 18.7339 6.76848 18.7339 6.41424V5.07797C18.7339 4.7237 18.4466 4.43652 18.0923 4.43652Z" fill="#2563EB"/>
<path fill-rule="evenodd" clip-rule="evenodd" d="M10.4747 2.39668C9.7423 3.26206 7.94445 3.49505 7.07884 2.39668C6.21328 1.2983 4.71502 1.36485 3.81616 2.39668V23.2994C4.23788 23.8097 5.74718 24.5243 7.07884 23.2994C8.17754 22.2888 9.7423 22.6337 10.4747 23.2994C11.2072 23.9651 12.9717 24.15 13.9705 23.2994C14.8694 22.5338 16.4008 22.4339 17.333 23.2994C18.1455 24.0536 19.8633 24.3978 20.5958 23.2994C20.5958 23.2446 20.5967 23.0063 20.5982 22.6175L20.5984 22.5651V22.5593C20.6102 19.5531 20.6541 8.28077 20.5958 2.39668C19.7967 1.43141 18.4112 1.42663 17.333 2.39668C16.3343 3.29535 14.7362 3.21501 13.9705 2.39668C13.2047 1.57835 11.2072 1.53129 10.4747 2.39668ZM12.2019 2.72739C12.748 2.73207 13.1344 2.91153 13.2677 3.05397C13.8642 3.6915 14.7247 3.98922 15.5488 4.00257C16.3826 4.01607 17.2761 3.74239 17.9768 3.11183C18.62 2.53319 19.2361 2.53906 19.6372 2.81216C19.6897 8.78088 19.6477 19.5836 19.6361 22.5441V22.5482L19.6346 22.9233C19.5062 23.0059 19.322 23.0523 19.0608 23.0342C18.6456 23.0056 18.2242 22.8137 17.9879 22.5943C16.6467 21.3492 14.561 21.5326 13.3464 22.567C13.082 22.7921 12.6522 22.9238 12.1565 22.9064C11.6455 22.8885 11.2682 22.7202 11.1221 22.5875C10.5838 22.0982 9.80025 21.768 8.98088 21.711C8.13923 21.6525 7.2004 21.8802 6.42727 22.5913C5.99127 22.9923 5.57899 23.048 5.24881 22.9986C5.07227 22.9721 4.91004 22.9132 4.77854 22.8429V2.80637C5.3021 2.4114 5.93822 2.50396 6.32294 2.99213C6.9927 3.84198 7.99164 4.13366 8.86988 4.09426C9.72939 4.0557 10.6361 3.69554 11.2094 3.01817C11.3114 2.89766 11.6497 2.72266 12.2019 2.72739Z" fill="#2563EB"/>
</g>
<defs>
<clipPath id="clip0_279_487">
<rect width="20.6452" height="24" fill="white"/>
</clipPath>
</defs>
</svg>
