<svg width="116" height="34" viewBox="0 0 116 34" fill="none" xmlns="http://www.w3.org/2000/svg">
<g clip-path="url(#clip0_42_1269)">
<path d="M42.3154 14.6476V0.415039H46.1843V11.0104H50.5245V14.6476H42.3154Z" fill="white"/>
<path d="M29.7466 14.6476V0.415039H33.5958V5.4162H37.5039V0.415039H41.3531V14.6476H37.5039V9.34992H33.5958V14.6476H29.7466Z" fill="white"/>
<path d="M16.6081 0.415039L11.0307 7.19527L17.4133 14.6476H12.3072L7.96699 9.56736V14.6476H4.09814V0.415039H7.96699V4.68481H7.92772L11.6002 0.415039H16.6081Z" fill="white"/>
<path d="M14.5264 7.41279C14.5264 3.32093 17.7864 0 21.8124 0C25.8384 0 29.0985 3.32093 29.0985 7.41279C29.0985 11.5047 25.8384 14.8256 21.8124 14.8256C17.7864 14.8256 14.5264 11.5047 14.5264 7.41279ZM21.8124 11.0698C23.6191 11.0698 25.0921 9.42907 25.0921 7.41279C25.0921 5.39651 23.6191 3.75581 21.8124 3.75581C20.0056 3.75581 18.5327 5.39651 18.5327 7.41279C18.5327 9.42907 20.0056 11.0698 21.8124 11.0698Z" fill="white"/>
<path d="M59.1656 0.415039V3.69643L55.2771 3.7162L55.2575 5.94992H58.8514V9.13248H55.2771V11.3069H59.1852V14.6476H51.3101V0.415039H59.1656Z" fill="white"/>
<path d="M67.1782 8.95457L71.2042 14.6476H66.9818L63.8396 10.279V14.6278H60.0493V0.415039H64.9001C69.1617 0.415039 71.8523 5.79178 67.1782 8.95457ZM64.9197 6.46388C65.666 6.46388 66.2748 5.85109 66.2748 5.09992C66.2748 4.34876 65.666 3.73597 64.9197 3.73597H63.82V6.46388H64.9197Z" fill="white"/>
<path d="M71.6753 14.0151C71.6753 13.3035 72.2448 12.7302 72.9518 12.7302C73.6588 12.7302 74.2283 13.3035 74.2283 14.0151C74.2283 14.7267 73.6588 15.3 72.9518 15.3C72.2252 15.2802 71.6753 14.7267 71.6753 14.0151ZM73.9141 14.0151C73.9141 13.4419 73.4821 13.0267 72.9518 13.0267C72.4019 13.0267 71.9895 13.4419 71.9895 14.0151C71.9895 14.5884 72.4019 14.9837 72.9518 14.9837C73.4821 14.9837 73.9141 14.5686 73.9141 14.0151ZM73.5606 14.6675H73.2464L72.9322 14.0942H72.7358V14.6675H72.4412V13.343H73.0893C73.4035 13.343 73.5999 13.4023 73.5999 13.7582C73.5999 13.9954 73.4821 14.1139 73.2464 14.1139L73.5606 14.6675ZM73.0893 13.8965C73.2464 13.8965 73.325 13.857 73.325 13.6988C73.325 13.5605 73.1482 13.5605 73.0304 13.5605H72.7358V13.8965H73.0893Z" fill="white"/>
<path d="M7.00501 19.3918V31.0546H14.0554V33.6046H4.03955V19.3918H7.00501Z" fill="white"/>
<path d="M17.9827 29.4535C17.9827 30.0465 18.0612 30.5012 18.1987 30.7977C18.454 31.3314 18.9253 31.6081 19.652 31.6081C20.575 31.6081 21.2231 31.2326 21.5569 30.4616C21.7337 30.0465 21.8319 29.5128 21.8319 28.8209V23.0884H24.6009V33.6047H21.9497V32.1221C21.9301 32.1616 21.8515 32.2605 21.7533 32.4186C21.6551 32.5768 21.5373 32.7151 21.3802 32.8337C20.9481 33.2291 20.5357 33.4861 20.1429 33.6244C19.7502 33.7628 19.2788 33.8419 18.7486 33.8419C17.1971 33.8419 16.1759 33.2884 15.626 32.1616C15.3314 31.5488 15.1743 30.6395 15.1743 29.4337V23.0884H17.9827V29.4535Z" fill="white"/>
<path d="M25.6226 33.6244L29.1968 28.2872L25.7797 23.1082H29.1183L30.8661 26.1523L32.5747 23.1082H35.8151L32.3783 28.2279L35.9526 33.6047H32.5551L30.7483 30.4419L28.9415 33.6047H25.6226V33.6244Z" fill="white"/>
<path d="M39.3499 29.2361C39.4481 29.8884 39.6248 30.3629 39.8802 30.6989C40.3711 31.2919 41.2156 31.5687 42.3939 31.5687C43.1009 31.5687 43.6901 31.4896 44.1221 31.3315C44.9666 31.0349 45.379 30.4815 45.379 29.6908C45.379 29.2163 45.163 28.8605 44.7506 28.6036C44.3382 28.3466 43.6901 28.1291 42.7867 27.9315L41.2549 27.5954C39.7427 27.2594 38.7215 26.9036 38.1519 26.5082C37.1896 25.8559 36.7183 24.828 36.7183 23.4245C36.7183 22.1594 37.1896 21.0919 38.1127 20.2419C39.0357 19.3919 40.4104 18.9768 42.2172 18.9768C43.7294 18.9768 45.0059 19.3722 46.0664 20.1629C47.1269 20.9536 47.6964 22.1198 47.7357 23.6222H44.8881C44.8291 22.7722 44.456 22.1594 43.749 21.8036C43.2777 21.5663 42.6885 21.4477 41.9815 21.4477C41.196 21.4477 40.5872 21.6059 40.1158 21.9024C39.6445 22.1989 39.4088 22.6338 39.4088 23.1873C39.4088 23.7012 39.6445 24.0768 40.0962 24.3338C40.3908 24.4919 41.0192 24.6896 41.9815 24.9268L44.456 25.5198C45.5361 25.7768 46.361 26.1129 46.8912 26.5477C47.7357 27.2198 48.1481 28.1884 48.1481 29.4536C48.1481 30.7582 47.6571 31.8256 46.6555 32.6954C45.654 33.5454 44.24 33.9803 42.4332 33.9803C40.5675 33.9803 39.1142 33.5652 38.0341 32.7152C36.9736 31.8652 36.4434 30.6989 36.4434 29.2163H39.3499V29.2361Z" fill="white"/>
<path d="M48.4229 25.1641V23.2071H49.8761V20.2815H52.5863V23.2071H54.2752V25.1641H52.5863V30.7187C52.5863 31.1536 52.6452 31.4106 52.7434 31.5292C52.8612 31.628 53.1754 31.6873 53.745 31.6873C53.8235 31.6873 53.9217 31.6873 54.0003 31.6873C54.0985 31.6873 54.177 31.6873 54.2752 31.6675V33.7234L52.9791 33.7629C51.6829 33.8024 50.7991 33.585 50.3278 33.0908C50.0136 32.7745 49.8761 32.2803 49.8761 31.628V25.1641H48.4229Z" fill="white"/>
<path d="M64.1734 32.3394C63.2896 33.4266 61.9542 33.9801 60.1474 33.9801C58.3603 33.9801 57.0052 33.4266 56.1215 32.3394C55.2377 31.2522 54.8057 29.9278 54.8057 28.3859C54.8057 26.8638 55.2377 25.5592 56.1215 24.4324C57.0052 23.3255 58.3406 22.772 60.1474 22.772C61.9346 22.772 63.2896 23.3255 64.1734 24.4324C65.0571 25.5394 65.4892 26.8638 65.4892 28.3859C65.4892 29.9278 65.0571 31.2324 64.1734 32.3394ZM61.9738 30.8173C62.4059 30.2441 62.6219 29.4336 62.6219 28.3859C62.6219 27.3383 62.4059 26.5278 61.9738 25.9545C61.5418 25.3813 60.933 25.1045 60.1278 25.1045C59.3226 25.1045 58.7138 25.3813 58.2817 25.9545C57.8497 26.5278 57.6337 27.3383 57.6337 28.3859C57.6337 29.4336 57.8497 30.2441 58.2817 30.8173C58.7138 31.3906 59.3226 31.6673 60.1278 31.6673C60.933 31.6673 61.5614 31.3906 61.9738 30.8173Z" fill="white"/>
<path d="M75.2887 23.7011C75.9761 24.2743 76.3099 25.2232 76.3099 26.5278V33.6046H73.5212V27.1999C73.5212 26.6464 73.4427 26.2313 73.3052 25.9348C73.0302 25.4011 72.5393 25.1243 71.7734 25.1243C70.8503 25.1243 70.2219 25.5197 69.888 26.3104C69.7113 26.7255 69.6131 27.2592 69.6131 27.9115V33.6046H66.8833V23.1081H69.5345V24.6499C69.888 24.1162 70.2219 23.7208 70.5361 23.4836C71.1056 23.0685 71.8126 22.8511 72.6571 22.8511C73.7176 22.8511 74.6014 23.1278 75.2887 23.7011Z" fill="white"/>
<path d="M85.0691 23.3257C85.7957 23.6617 86.4045 24.1757 86.8759 24.8873C87.3079 25.5199 87.5829 26.2315 87.7007 27.0617C87.7792 27.5361 87.7989 28.2478 87.7989 29.1571H80.1987C80.2379 30.2047 80.6111 30.9559 81.2984 31.371C81.7108 31.628 82.2215 31.7664 82.8106 31.7664C83.4391 31.7664 83.93 31.6082 84.3228 31.292C84.5388 31.114 84.7156 30.8768 84.8923 30.5606H87.6614C87.5829 31.1931 87.249 31.8257 86.6402 32.4582C85.6975 33.4861 84.4014 34.0001 82.7124 34.0001C81.3181 34.0001 80.1005 33.5652 79.04 32.7152C77.9795 31.8454 77.4492 30.442 77.4492 28.5047C77.4492 26.6861 77.9205 25.2827 78.8829 24.314C79.8452 23.3454 81.0824 22.8513 82.6142 22.8513C83.5373 22.8315 84.3424 22.9896 85.0691 23.3257ZM80.9842 25.6978C80.5914 26.0931 80.3558 26.6466 80.2576 27.3187H84.9709C84.912 26.5873 84.6763 26.0338 84.2443 25.6582C83.8122 25.2827 83.2623 25.085 82.6142 25.085C81.9269 25.085 81.377 25.2827 80.9842 25.6978Z" fill="white"/>
<path d="M30.8661 23.4443L28.6665 19.6094H33.0656L30.8661 23.4443Z" fill="#71BFFF"/>
<path d="M88.6433 32.5373H88.2505V32.2803H89.3306V32.5373H88.9378V33.6245H88.6433V32.5373Z" fill="white"/>
<path d="M89.4878 32.2803H89.9002L90.2144 33.2093L90.509 32.2803H90.9214V33.6245H90.6465V32.6756L90.3126 33.6245H90.0966L89.7627 32.6756V33.6245H89.4878V32.2803Z" fill="white"/>
</g>
<defs>
<clipPath id="clip0_42_1269">
<rect width="87" height="34" fill="white" transform="translate(4)"/>
</clipPath>
</defs>
</svg>
