<svg width="175" height="30" viewBox="0 0 175 30" fill="none" xmlns="http://www.w3.org/2000/svg">
<path d="M13.7763 0L16.8693 10.3647H26.8784L18.7809 16.7705L21.8738 27.1353L13.7763 20.7295L5.6788 27.1353L8.77178 16.7705L0.674261 10.3647H10.6833L13.7763 0Z" fill="#FFC700"/>
<path d="M50.5131 0L53.6061 10.3647H63.6152L55.5177 16.7705L58.6106 27.1353L50.5131 20.7295L42.4156 27.1353L45.5086 16.7705L37.4111 10.3647H47.4202L50.5131 0Z" fill="#FFC700"/>
<path d="M87.2499 0L90.3429 10.3647H100.352L92.2545 16.7705L95.3475 27.1353L87.2499 20.7295L79.1524 27.1353L82.2454 16.7705L74.1479 10.3647H84.157L87.2499 0Z" fill="#FFC700"/>
<path d="M123.987 0L127.08 10.3647H137.089L128.991 16.7705L132.084 27.1353L123.987 20.7295L115.889 27.1353L118.982 16.7705L110.885 10.3647H120.894L123.987 0Z" fill="#FFC700"/>
<path d="M160.724 0L163.817 10.3647H173.826L165.728 16.7705L168.821 27.1353L160.724 20.7295L152.626 27.1353L155.719 16.7705L147.622 10.3647H157.631L160.724 0Z" fill="#FFC700"/>
</svg>
