<svg width="42" height="42" viewBox="0 0 42 42" fill="none" xmlns="http://www.w3.org/2000/svg">
<g filter="url(#filter0_d_63_1779)">
<rect x="2" y="1" width="38" height="38" rx="6" fill="white"/>
<path fill-rule="evenodd" clip-rule="evenodd" d="M16.1875 23.5C16.1875 23.384 16.2336 23.2727 16.3156 23.1906C16.3977 23.1086 16.509 23.0625 16.625 23.0625H25.375C25.491 23.0625 25.6023 23.1086 25.6844 23.1906C25.7664 23.2727 25.8125 23.384 25.8125 23.5C25.8125 23.616 25.7664 23.7273 25.6844 23.8094C25.6023 23.8914 25.491 23.9375 25.375 23.9375H16.625C16.509 23.9375 16.3977 23.8914 16.3156 23.8094C16.2336 23.7273 16.1875 23.616 16.1875 23.5ZM16.1875 20C16.1875 19.884 16.2336 19.7727 16.3156 19.6906C16.3977 19.6086 16.509 19.5625 16.625 19.5625H25.375C25.491 19.5625 25.6023 19.6086 25.6844 19.6906C25.7664 19.7727 25.8125 19.884 25.8125 20C25.8125 20.116 25.7664 20.2273 25.6844 20.3094C25.6023 20.3914 25.491 20.4375 25.375 20.4375H16.625C16.509 20.4375 16.3977 20.3914 16.3156 20.3094C16.2336 20.2273 16.1875 20.116 16.1875 20ZM16.1875 16.5C16.1875 16.384 16.2336 16.2727 16.3156 16.1906C16.3977 16.1086 16.509 16.0625 16.625 16.0625H25.375C25.491 16.0625 25.6023 16.1086 25.6844 16.1906C25.7664 16.2727 25.8125 16.384 25.8125 16.5C25.8125 16.616 25.7664 16.7273 25.6844 16.8094C25.6023 16.8914 25.491 16.9375 25.375 16.9375H16.625C16.509 16.9375 16.3977 16.8914 16.3156 16.8094C16.2336 16.7273 16.1875 16.616 16.1875 16.5Z" fill="#1F2937"/>
<rect x="2.5" y="1.5" width="37" height="37" rx="5.5" stroke="#E5E7EB"/>
</g>
<defs>
<filter id="filter0_d_63_1779" x="0" y="0" width="42" height="42" filterUnits="userSpaceOnUse" color-interpolation-filters="sRGB">
<feFlood flood-opacity="0" result="BackgroundImageFix"/>
<feColorMatrix in="SourceAlpha" type="matrix" values="0 0 0 0 0 0 0 0 0 0 0 0 0 0 0 0 0 0 127 0" result="hardAlpha"/>
<feOffset dy="1"/>
<feGaussianBlur stdDeviation="1"/>
<feComposite in2="hardAlpha" operator="out"/>
<feColorMatrix type="matrix" values="0 0 0 0 0 0 0 0 0 0 0 0 0 0 0 0 0 0 0.05 0"/>
<feBlend mode="normal" in2="BackgroundImageFix" result="effect1_dropShadow_63_1779"/>
<feBlend mode="normal" in="SourceGraphic" in2="effect1_dropShadow_63_1779" result="shape"/>
</filter>
</defs>
</svg>
